Coordinates
version=1
nRows=16
nColumns=32
inDegrees=yes

Units are S.I. units (second, meters, Newtons, ...)
If the header above contains a line with 'inDegrees', this indicates whether rotational values are in degrees (yes) or radians (no).

endheader
time	pelvis_tilt	pelvis_list	pelvis_rotation	pelvis_tx	pelvis_ty	pelvis_tz	hip_flexion_r	hip_adduction_r	hip_rotation_r	knee_angle_r	knee_adduction_r	med_cond_adduction_r	lat_cond_adduction_r	patella_r_constrained_knee_angle	ankle_angle_r	subtalar_angle_r	mtp_angle_r	hip_flexion_l	hip_adduction_l	hip_rotation_l	knee_angle_l	knee_adduction_l	med_cond_adduction_l	lat_cond_adduction_l	patella_l_constrained_knee_angle	ankle_angle_l	subtalar_angle_l	mtp_angle_l	lumbar_extension	lumbar_bending	lumbar_rotation
      0.00500000	     -2.61620225	      5.21704575	     -4.08621301	      0.24042718	      0.90306904	     -1.19604997	      2.86272816	    -28.40234180	    -31.58596564	     -5.74018290	      4.55023749	      0.00000000	      0.00000000	     -0.10018509	     -9.28572833	     10.15982645	     -0.00000000	      1.24136814	    -14.13750355	    -38.78535058	     -4.63449892	      0.83622764	      0.00000000	      0.00000000	     -0.08088727	     -8.52038409	     15.21100012	     -0.00000000	    -13.37411402	     -4.71740215	     -3.12383796
      0.01000000	     -2.64917273	      5.21889451	     -4.08334979	      0.24044135	      0.90304285	     -1.19609011	      2.85903002	    -28.38636551	    -31.56869696	     -5.65037604	      4.56586003	      0.00000000	      0.00000000	     -0.09861767	     -9.36431884	     10.09796256	      0.00000000	      1.28505104	    -14.12507728	    -38.79228794	     -4.63563901	      0.80535278	      0.00000000	      0.00000000	     -0.08090716	     -8.52535932	     15.26417463	     -0.00000000	    -13.32557905	     -4.71994007	     -3.14018462
      0.01500000	     -2.68136622	      5.25565644	     -4.19708149	      0.24048225	      0.90295302	     -1.19585509	      3.10482816	    -28.48409490	    -31.63620505	     -5.96762221	      4.49070444	      0.00000000	      0.00000000	     -0.10415466	     -9.08828547	     10.62643848	     -0.00000000	      1.22328775	    -14.07241029	    -38.80563420	     -4.51934524	      0.85715086	      0.00000000	      0.00000000	     -0.07887745	     -8.57783093	     15.06002519	     -0.00000000	    -13.27131280	     -4.66776209	     -2.83329288
      0.02000000	     -2.67515932	      5.13547737	     -4.20831072	      0.24048512	      0.90303756	     -1.19580818	      3.07484412	    -28.29250764	    -31.67101775	     -5.88002352	      4.41660462	      0.00000000	      0.00000000	     -0.10262577	     -9.17685775	     10.61477252	      0.00000000	      1.20845995	    -14.23971430	    -38.81380172	     -4.57113873	      0.89749484	     -0.00000000	     -0.00000000	     -0.07978142	     -8.56979498	     15.04233378	     -0.00000000	    -13.28867842	     -4.54149732	     -2.84758146
      0.02500000	     -2.73621452	      5.35959309	     -4.21465489	      0.24056095	      0.90288147	     -1.19594374	      3.15744877	    -28.61915684	    -31.60564217	     -5.93938697	      4.54670864	     -0.00000000	     -0.00000000	     -0.10366186	     -9.14754850	     10.57077569	      0.00000000	      1.27292012	    -13.91856219	    -38.80666403	     -4.46375783	      0.80742339	     -0.00000000	     -0.00000000	     -0.07790727	     -8.60680410	     15.04172948	     -0.00000000	    -13.17940201	     -4.86653284	     -2.98701688
      0.03000000	     -2.74789325	      5.23326534	     -4.23601211	      0.24060569	      0.90291499	     -1.19585821	      3.15135891	    -28.42371986	    -31.62769825	     -5.86583240	      4.47582063	      0.00000000	      0.00000000	     -0.10237809	     -9.18530932	     10.63808732	     -0.00000000	      1.26692271	    -14.11167576	    -38.81663268	     -4.53498886	      0.88107482	     -0.00000000	     -0.00000000	     -0.07915049	     -8.54806795	     15.03867236	     -0.00000000	    -13.16708967	     -4.64434870	     -2.82172618
      0.03500000	     -2.75695935	      5.20500122	     -4.22940162	      0.24064624	      0.90293452	     -1.19589761	      3.13340552	    -28.37375055	    -31.64850336	     -5.81385275	      4.46107935	     -0.00000000	     -0.00000000	     -0.10147087	     -9.22411187	     10.60975251	     -0.00000000	      1.28507198	    -14.15043869	    -38.82024581	     -4.56733780	      0.88413120	     -0.00000000	     -0.00000000	     -0.07971508	     -8.52855717	     15.04152047	     -0.00000000	    -13.14765226	     -4.65639058	     -2.92448019
      0.04000000	     -2.79109266	      5.20014882	     -4.24838734	      0.24070261	      0.90289290	     -1.19585524	      3.17306312	    -28.35505138	    -31.63035779	     -5.79599531	      4.44915834	     -0.00000000	     -0.00000000	     -0.10115920	     -9.23264576	     10.63086381	     -0.00000000	      1.31132698	    -14.17452075	    -38.82807129	     -4.59689420	      0.90710374	     -0.00000000	     -0.00000000	     -0.08023094	     -8.50895054	     15.05070774	     -0.00000000	    -13.08956238	     -4.68870911	     -2.94446558
      0.04500000	     -2.78745512	      5.19902795	     -4.25604604	      0.24073587	      0.90291561	     -1.19586777	      3.17217638	    -28.35198372	    -31.62927953	     -5.79810464	      4.44598174	     -0.00000000	     -0.00000000	     -0.10119602	     -9.21513195	     10.63701896	      0.00000000	      1.30412490	    -14.16689538	    -38.83059377	     -4.58165255	      0.90115900	     -0.00000000	     -0.00000000	     -0.07996492	     -8.52724553	     15.02256086	      0.00000000	    -13.08307900	     -4.63592846	     -2.89541857
      0.05000000	     -2.78890466	      5.23526644	     -4.27719724	      0.24080158	      0.90290458	     -1.19584263	      3.18839948	    -28.39817377	    -31.60288073	     -5.80872194	      4.45532167	      0.00000000	      0.00000000	     -0.10138132	     -9.21525173	     10.61964913	      0.00000000	      1.29367759	    -14.11468483	    -38.83178521	     -4.56521460	      0.88446204	     -0.00000000	     -0.00000000	     -0.07967803	     -8.52096634	     14.99636582	     -0.00000000	    -13.05048000	     -4.63400707	     -2.79351691
      0.05500000	     -2.78446382	      5.21654585	     -4.28388514	      0.24084552	      0.90293304	     -1.19583180	      3.17816378	    -28.36281592	    -31.58734574	     -5.78247664	      4.44025477	      0.00000000	      0.00000000	     -0.10092326	     -9.27846251	     10.57736570	      0.00000000	      1.28643336	    -14.13980124	    -38.83022061	     -4.58068169	      0.88534494	      0.00000000	      0.00000000	     -0.07994798	     -8.50231174	     15.00039667	      0.00000000	    -13.04046455	     -4.64910162	     -2.85753203
      0.06000000	     -2.76021458	      5.17148697	     -4.29776035	      0.24088632	      0.90298722	     -1.19578118	      3.18009484	    -28.29953588	    -31.59402738	     -5.81630887	      4.39140545	     -0.00000000	     -0.00000000	     -0.10151374	     -9.26290489	     10.57050379	      0.00000000	      1.25377597	    -14.19466343	    -38.84362930	     -4.58398140	      0.88568637	      0.00000000	      0.00000000	     -0.08000557	     -8.55954488	     14.96404087	     -0.00000000	    -13.03976318	     -4.60751752	     -2.83714239
      0.06500000	     -2.77714096	      5.20181963	     -4.27220424	      0.24097538	      0.90293109	     -1.19585263	      3.16073907	    -28.35498159	    -31.60114547	     -5.80873249	      4.44091815	      0.00000000	      0.00000000	     -0.10138151	     -9.19172071	     10.61309871	      0.00000000	      1.29884167	    -14.16926888	    -38.83169473	     -4.63849478	      0.89145861	     -0.00000000	     -0.00000000	     -0.08095701	     -8.47735710	     15.00241821	     -0.00000000	    -12.99825281	     -4.63584160	     -2.89047481
      0.07000000	     -2.75997355	      5.21377029	     -4.29557401	      0.24103523	      0.90295023	     -1.19577574	      3.16608078	    -28.36859776	    -31.56317307	     -5.83268523	      4.43781122	      0.00000000	      0.00000000	     -0.10179956	     -9.19665285	     10.58774306	     -0.00000000	      1.26237683	    -14.15181426	    -38.82858656	     -4.62341680	      0.88751060	     -0.00000000	     -0.00000000	     -0.08069385	     -8.47104087	     14.98103751	     -0.00000000	    -12.98933704	     -4.62468652	     -2.80724864
      0.07500000	     -2.73819486	      5.23076073	     -4.29983837	      0.24109396	      0.90297118	     -1.19575942	      3.15695401	    -28.39999946	    -31.54906557	     -5.86458916	      4.44081968	      0.00000000	      0.00000000	     -0.10235639	     -9.20653896	     10.59759511	      0.00000000	      1.24485029	    -14.12641453	    -38.82922082	     -4.62938921	      0.86983470	      0.00000000	      0.00000000	     -0.08079808	     -8.46466549	     14.97557154	     -0.00000000	    -12.98790511	     -4.64104063	     -2.79998266
      0.08000000	     -2.72490921	      5.18685655	     -4.13638416	      0.24113164	      0.90305334	     -1.19611629	      2.86220734	    -28.25680987	    -31.45264667	     -5.44626337	      4.49278381	      0.00000000	      0.00000000	     -0.09505523	     -9.50361119	      9.89229233	      0.00000000	      1.38428745	    -14.21194607	    -38.80663271	     -4.86554556	      0.80498187	      0.00000000	      0.00000000	     -0.08491979	     -8.29961490	     15.27765063	     -0.00000000	    -13.00738238	     -4.70237315	     -3.19916469
